<svg xmlns="http://www.w3.org/2000/svg" viewBox="0 0 100 125" x="0px" y="0px">
  <path fill="currentColor" d="M75.37,58.95c.5,0,.84,0,1.54,0a9.85,9.85,0,0,0,1.86-.26,10.27,10.27,0,0,0,7.69-7.75l2.31-11.44L91,28.07v0a2.73,2.73,0,0,0-2.69-3.24l-10.6.05a144,144,0,0,0,1-14.43,2.52,2.52,0,0,0-2.44-2.6h-.16c-5.62-.17-11.8-.19-17.5-.05q.06-2,.1-4.14A2.61,2.61,0,0,0,56.18,1h-.1C49.57.85,42.52.85,36,1h-.1a2.59,2.59,0,0,0-2.54,2.64c.18,9.21.59,17.23,1.24,22-3.56.14-6.72.29-9.4.46l-.11-.44-1.79-7.22-.85-3.36c-.15-.56-.24-1-.48-1.77a8.8,8.8,0,0,0-.93-1.89,8.14,8.14,0,0,0-6.35-3.64h-.83l-.66,0L12,7.93,9.63,8.1c-.41,0-.72.68-.69,1.44s.32,1.21.69,1.24l2.34.17,1.27.08.66,0,.52.06a4.7,4.7,0,0,1,3.33,2.37,5,5,0,0,1,.4,1L18.41,16,19,19.41l1.4,7.3c2,10.12,4.4,21.65,6.89,33.16l.9,4.32.45,2.15.13.58c.07.25.12.51.21.76a9.39,9.39,0,0,0,.61,1.44A9.06,9.06,0,0,0,37.09,74l.72,0h1.61c5.71-.06,11.23-.14,16.39-.26,10.31-.23,19.14-.57,25-1,.42,0,.74-.7.71-1.47s-.33-1.25-.71-1.28c-5.87-.46-14.7-.81-25-1-5.15-.11-10.68-.2-16.39-.26H37.81l-.36,0a3.7,3.7,0,0,1-3-2,4,4,0,0,1-.24-.58c0-.1,0-.2-.08-.3s-.07-.33-.1-.49l-.44-2.16-.9-4.33-.2-.93c7.81.45,19.1.78,32,1ZM73.63,13.09c.19,4.67.5,8.82.92,11.78-5.87,0-11.57.12-17,.21.44-2.95.76-7.13,1-12C63.45,13.2,68.69,13.2,73.63,13.09Zm-35-6.78c4.9.07,10,.08,14.88,0q0,1.74.1,3.42a2.47,2.47,0,0,0-.08.68,138.09,138.09,0,0,0,1.07,14.71c-6.25.12-12,.26-17.13.44C38,21.23,38.4,14.32,38.6,6.32ZM31.87,54.92c-2-9-4-17.87-6-25.94,12.6.75,35,1.18,59.1,1.28L81.19,49.75a5,5,0,0,1-3.66,3.81,8.09,8.09,0,0,1-2.16.18l-10.85.15C51.25,54.11,39.7,54.45,31.87,54.92Z" />
  <path fill="currentColor" d="M44.1,86.19a4.71,4.71,0,0,1,2.82,1.4A6,6,0,0,1,48.32,90a3.24,3.24,0,0,0,1.48.19c.7,0,1.24-.13,1.26-.29a7.06,7.06,0,0,0-.9-4.54,8.24,8.24,0,0,0-5-3.84,8.76,8.76,0,0,0-7.41,1.4,9,9,0,0,0,0,14.55A8.89,8.89,0,0,0,41.4,99a8.72,8.72,0,0,0,3.73-.17,8.22,8.22,0,0,0,5-3.85A7,7,0,0,0,51,90.44c0-.17-.67-.3-1.43-.28a2.65,2.65,0,0,0-1.25.19,6,6,0,0,1-1.42,2.39,4.74,4.74,0,0,1-2.83,1.41,4.17,4.17,0,0,1-3.18-.95,3.94,3.94,0,0,1,0-6.07A4.16,4.16,0,0,1,44.1,86.19Z" />
  <path fill="currentColor" d="M70.78,86.19a4.71,4.71,0,0,1,2.82,1.4A6,6,0,0,1,75,90a3.24,3.24,0,0,0,1.48.19c.7,0,1.24-.13,1.26-.29a7.06,7.06,0,0,0-.9-4.54,8.24,8.24,0,0,0-5-3.84,8.76,8.76,0,0,0-7.41,1.4,9,9,0,0,0,0,14.55A8.88,8.88,0,0,0,68.07,99a8.72,8.72,0,0,0,3.73-.17,8.22,8.22,0,0,0,5-3.85,7,7,0,0,0,.89-4.53c0-.17-.67-.3-1.43-.28a2.64,2.64,0,0,0-1.25.19,6,6,0,0,1-1.42,2.39,4.74,4.74,0,0,1-2.83,1.41,4.17,4.17,0,0,1-3.18-.95,3.94,3.94,0,0,1,0-6.07A4.15,4.15,0,0,1,70.78,86.19Z" />
</svg>